<?xml version="1.0" encoding="utf-8"?>
<!-- Generator: Adobe Illustrator 19.2.0, SVG Export Plug-In . SVG Version: 6.00 Build 0)  -->
<svg version="1.1" id="圖層_1" xmlns="http://www.w3.org/2000/svg" xmlns:xlink="http://www.w3.org/1999/xlink" x="0px" y="0px"
	 viewBox="0 0 60.1 56.8" style="enable-background:new 0 0 60.1 56.8;" xml:space="preserve">
<style type="text/css">
	.st0{fill:#FFFFFF;}
</style>
<path class="st0" d="M60,22.8C59.3,10.1,46.1,0,30,0C13.4,0,0,10.7,0,23.9C0,36,11.4,46,26.1,47.6c0.9,0.1,1.5,0.9,1.4,1.8L26.9,55
	c-0.1,1.3,1.2,2.2,2.3,1.6c12.4-6,19.9-12.2,24.3-17.5c0.8-1,3.4-4.7,4-5.6c1.1-2.1,1.9-4.3,2.3-6.6c0.1-0.7,0.2-1.3,0.2-1.8
	C60.1,24.3,60,23.1,60,22.8L60,22.8z M19.7,30.3c0,0.8-0.7,1.5-1.5,1.5H12c-0.8,0-1.5-0.7-1.5-1.5V18.7c0-0.8,0.7-1.5,1.5-1.5
	s1.5,0.7,1.5,1.5v10.1h4.6C19,28.7,19.7,29.4,19.7,30.3L19.7,30.3z M24.2,30.6c0,0.7-0.5,1.2-1.2,1.2h-0.7c-0.7,0-1.2-0.5-1.2-1.2
	V18.3c0-0.7,0.5-1.2,1.2-1.2H23c0.7,0,1.2,0.5,1.2,1.2V30.6L24.2,30.6z M38.5,30.2c0,0.9-0.7,1.6-1.5,1.6c-0.4,0-0.8-0.2-1-0.4
	c-0.1-0.1-6.3-8.2-6.3-8.2v7c0,0.8-0.7,1.5-1.5,1.5s-1.5-0.7-1.5-1.5V18.7c0-0.8,0.6-1.6,1.5-1.6c0.5,0,0.9,0.2,1.2,0.5
	c0.1,0.1,6.2,8.1,6.2,8.1v-7.1c0-0.8,0.7-1.5,1.5-1.5c0.8,0,1.5,0.7,1.5,1.5V30.2L38.5,30.2z M43.8,26v2.7h4.6
	c0.8,0,1.5,0.7,1.5,1.5c0,0.8-0.7,1.5-1.5,1.5h-6.1c-0.8,0-1.5-0.7-1.5-1.5V18.7c0-0.8,0.7-1.5,1.5-1.5h6.1c0.8,0,1.5,0.7,1.5,1.5
	c0,0.8-0.7,1.5-1.5,1.5h-4.6v2.7h4.6c0.8,0,1.5,0.7,1.5,1.5S49.3,26,48.4,26L43.8,26L43.8,26z"/>
</svg>
